<svg width="1024" height="1024" viewBox="0 0 1024 1024" fill="none" xmlns="http://www.w3.org/2000/svg">
<g clip-path="url(#clip0_1_2)">
<path d="M835.433 440.441C835.774 443.417 836.009 446.301 835.996 449.041C841.135 434.856 840.794 408.271 830.32 390.848C833.755 394.899 836.717 398.911 838.71 403.04C835.184 380.885 824.971 367.959 811.259 360.487C817.237 362.768 822.533 365.547 826.256 369.06C817.42 346.04 783.782 338.974 756.79 346.525C732.826 353.185 718.287 367.645 710.409 383.979L757.091 404.692C771.538 393.536 797.901 400.523 784.411 432.746C765.494 477.908 816.791 502.094 814.759 493.272C811.023 476.806 830.818 467.813 835.433 440.441Z" fill="#E3C6A3"/>
<path d="M332.4 882.175C338.338 885.321 363.049 875.017 346.532 859.023C336.673 862.17 331.403 875.03 332.4 882.175Z" fill="#7A5C4F"/>
<path d="M423.195 556.865C413.285 394.099 291.158 388.135 309.537 544.647C315.751 597.675 355.616 672.057 357.019 687.448C358.356 702.524 376.447 714.899 385.807 780.315C393.516 834.155 350.071 837.996 343.215 863.73L385.82 875.017C381.861 853.596 404.305 841.221 404.318 837.917C404.79 774.075 428.845 808.198 416.156 765.645C407.831 737.762 410.754 697.28 408.342 686.753C403.898 667.273 425.647 597.609 423.195 556.865Z" fill="#EBD4B9"/>
<path d="M337.158 886.291H381.796C381.796 886.291 385.807 882.109 385.807 875.017C385.807 875.017 350.858 855.667 343.215 863.73C333.278 874.217 337.158 886.278 337.158 886.278V886.291Z" fill="#8A6859"/>
<path d="M654.3 882.175C660.239 885.321 684.95 875.017 668.432 859.023C658.574 862.17 653.304 875.03 654.3 882.175Z" fill="#7A5C4F"/>
<path d="M740.862 550.77C730.951 388.004 579.276 387.951 608.247 542.812C622.13 617.064 694.166 669.672 695.556 685.049C696.906 700.177 698.361 714.899 707.708 780.315C715.39 834.155 671.946 837.996 665.103 863.73L707.708 875.017C703.775 853.596 726.166 841.221 726.192 837.917C726.677 774.075 750.733 808.198 738.043 765.645C729.732 737.762 749.265 694.894 746.879 684.367C742.435 664.913 743.326 591.5 740.862 550.77Z" fill="#EBD4B9"/>
<path d="M659.046 886.291H703.683C703.683 886.291 707.708 882.109 707.708 875.017C707.708 875.017 672.745 855.667 665.103 863.73C655.166 874.217 659.046 886.278 659.046 886.278V886.291Z" fill="#8A6859"/>
<path d="M308.436 190.367C248.106 143.002 256.719 79.5006 264.087 87.458C287.749 112.838 311.844 127.927 319.736 159.428C323.184 173.206 315.987 196.305 308.436 190.367Z" fill="#F0D0AC"/>
<path d="M292.311 148.22C353.178 151.222 348.105 279.419 263.497 256.687C200.729 239.841 194.738 261.288 192.038 235.122C176.018 233.287 191.749 226.444 185.09 214.645C171.364 194.155 268.505 159.874 292.324 148.22H292.311Z" fill="url(#paint0_linear_1_2)"/>
<path fill-rule="evenodd" clip-rule="evenodd" d="M204.623 212.259C204.623 212.259 188.996 218.04 187.384 212.495C185.155 204.761 204.95 208.418 204.623 212.259Z" fill="#302C3B"/>
<path d="M192.785 239.881C192.129 237.141 192.038 235.122 192.038 235.122C192.038 235.122 208.791 237.757 228.482 235.306C214.52 241.886 192.785 239.894 192.785 239.894V239.881Z" fill="#302C3B"/>
<path d="M750.313 398.806C636.38 318.314 488.074 433.637 438.284 392.539C390.461 353.054 439.516 133.931 336.477 127.612C304.083 125.619 280.106 143.173 270.471 157.724C313.942 139.882 364.688 253.278 273.788 258.784C309.458 307.761 244.777 392.238 257.82 507.273C258.659 514.614 259.866 521.431 261.386 527.828C265.607 554.873 275.072 579.033 282.099 589.744C286.032 595.892 287.854 596.246 289.44 589.967C289.781 588.59 290.358 587.082 290.843 585.614C295.09 598.828 300.02 609.683 304.083 615.897C308.042 622.058 309.852 622.412 311.425 616.133C312.329 612.685 313.837 608.844 315.685 604.872C319.067 613.812 322.594 621.154 325.661 625.821C329.621 631.956 331.43 632.349 333.003 626.083C334.13 621.77 335.965 617.011 338.548 612.017C363.456 620.774 389.793 623.894 411.161 627.866C426.341 654.242 452.77 663.628 467.112 666.656C474.191 668.23 475.738 667.168 472.526 661.609C469.555 656.202 467.307 650.428 465.84 644.436C480.221 657.637 497.263 663.379 507.79 665.608C514.869 667.141 516.39 666.119 513.178 660.534C511.079 656.688 509.354 652.649 508.026 648.474C525.147 657.1 543.002 657.545 553.673 656.562C560.765 656.038 561.971 654.491 557.514 650.165C553.673 646.363 549.858 641.119 546.345 634.748C562.863 643.99 579.931 643.4 589.802 641.722C595.964 640.713 596.947 639.205 592.765 635.037C589.715 631.902 586.996 628.463 584.65 624.772C599.765 631.681 614.762 631.117 623.782 629.583C629.917 628.587 630.939 627.04 626.731 622.924C623.93 619.983 621.402 616.793 619.18 613.393C629.607 616.61 640.641 617.346 651.403 615.543C657.552 614.547 658.548 613.013 654.353 608.857C651.305 605.704 648.582 602.252 646.225 598.553C671.618 594.175 700.38 593.191 735.828 599.287C855.188 619.895 803.039 399.763 750.313 398.806Z" fill="url(#paint1_radial_1_2)"/>
<path d="M314.597 178.817C254.792 129.513 273.198 61.3703 280.238 69.6948C302.72 96.3068 327.13 111.907 331.403 145.428C333.265 160.11 322.096 185.018 314.597 178.817Z" fill="#FFE1BD"/>
<path d="M310.428 166.94C269.684 132.331 276.685 76.1446 283.279 83.4727C327.589 133.066 317.888 173.233 310.428 166.94Z" fill="#DEB48C"/>
<path d="M355.42 903.871C361.358 907.017 386.07 896.713 369.565 880.732C359.693 883.853 354.437 896.713 355.42 903.871Z" fill="#7A5C4F"/>
<path d="M466.391 577.25C456.493 414.484 307.715 413.383 326.094 569.909C332.321 622.897 378.663 693.767 380.026 709.131C381.389 724.246 399.48 736.608 408.814 802.024C416.523 855.864 373.091 859.705 366.248 885.413L408.814 896.713C404.895 875.305 427.312 862.943 427.325 859.64C427.81 795.784 451.865 829.907 439.176 787.328C430.851 759.471 438.088 717.219 435.675 706.706C431.244 687.238 468.868 617.981 466.391 577.25Z" fill="#F5E4D0"/>
<path d="M360.152 908H404.816C404.816 908 408.814 903.831 408.814 896.713C408.814 896.713 373.878 877.377 366.248 885.413C356.285 895.939 360.152 908 360.152 908Z" fill="#8A6859"/>
<path d="M706.253 903.871C712.205 907.017 736.916 896.713 720.385 880.732C710.513 883.853 705.257 896.713 706.253 903.871Z" fill="#7A5C4F"/>
<path d="M800.929 566.75C772.429 406.16 606.831 411.863 635.79 566.75C649.686 641.001 740.888 694.619 742.277 709.983C743.628 725.111 750.3 736.595 759.66 802.024C767.356 855.864 723.911 859.705 717.081 885.413L759.66 896.713C755.741 875.305 778.132 862.93 778.158 859.626C778.63 795.784 802.672 829.907 789.996 787.328C781.671 759.471 801.243 716.603 798.818 706.089C794.374 686.622 808.362 608.529 800.929 566.737V566.75Z" fill="#F5E4D0"/>
<path d="M710.985 908H755.636C755.636 908 759.661 903.831 759.661 896.713C759.661 896.713 724.685 877.377 717.081 885.413C707.131 895.939 710.985 908 710.985 908Z" fill="#8A6859"/>
<path d="M257.912 181.229C257.322 185.084 264.493 192.674 273.132 192.897C281.784 193.093 290.122 186.499 290.686 181.229C278.52 173.075 261.57 173.338 257.912 181.229Z" fill="#1A1626"/>
<path d="M283.069 181.675C283.069 187.312 274.286 187.312 274.286 181.675C274.286 175.933 283.069 175.933 283.069 181.675Z" fill="#6E8189"/>
<path d="M290.686 181.229C285.599 176.68 276.069 172.97 268.059 172.97C262.435 172.97 257.453 175.855 257.912 181.229C263.182 173.469 283.187 180.508 290.686 181.229Z" fill="#FFF2E3"/>
</g>
<defs>
<linearGradient id="paint0_linear_1_2" x1="202.158" y1="203.804" x2="315.659" y2="203.804" gradientUnits="userSpaceOnUse">
<stop stop-color="#D9AA7E"/>
<stop offset="0.092" stop-color="#E2B78D"/>
<stop offset="0.262" stop-color="#EFCAA2"/>
<stop offset="0.451" stop-color="#F8D7B1"/>
<stop offset="0.671" stop-color="#FDDFBA"/>
<stop offset="1" stop-color="#FFE1BD"/>
</linearGradient>
<radialGradient id="paint1_radial_1_2" cx="0" cy="0" r="1" gradientUnits="userSpaceOnUse" gradientTransform="translate(560.98 666.113) rotate(-8.93969) scale(524.648 339.148)">
<stop stop-color="#E3C6A3"/>
<stop offset="0.015" stop-color="#E4C8A6"/>
<stop offset="0.135" stop-color="#ECD4B9"/>
<stop offset="0.276" stop-color="#F1DDC6"/>
<stop offset="0.456" stop-color="#F4E2CE"/>
<stop offset="0.806" stop-color="#F5E4D0"/>
</radialGradient>
<clipPath id="clip0_1_2">
<rect width="839" height="839" fill="white" transform="translate(92 69)"/>
</clipPath>
</defs>
</svg>
